<svg width="80" height="81" viewBox="0 0 80 81" fill="none" xmlns="http://www.w3.org/2000/svg">
<path d="M41.9861 15C20.1394 15 19.1464 26.38 19.1464 30.3658C19.1464 40.9948 30.8973 40.2755 35.3659 46.2543C39.338 51.5688 40.0001 65.4878 47.9443 65.4878C56.2196 65.4878 60.8537 44.2298 60.8537 34.9294C60.8537 25.629 53.9025 15 41.9861 15Z" stroke="black" stroke-width="6.58537" stroke-linecap="square" stroke-linejoin="bevel"/>
<path d="M35.6098 33.6584C38.0345 33.6584 40 31.6928 40 29.2682C40 26.8435 38.0345 24.8779 35.6098 24.8779C33.1851 24.8779 31.2195 26.8435 31.2195 29.2682C31.2195 31.6928 33.1851 33.6584 35.6098 33.6584Z" stroke="black" stroke-width="6.58537" stroke-linecap="square" stroke-linejoin="bevel"/>
</svg>
