<svg width="272" height="90" viewBox="0 0 272 90" fill="none" xmlns="http://www.w3.org/2000/svg">
<path d="M26.8397 24.1465C4.99303 24.1465 4 35.5265 4 39.5123C4 50.1413 15.7509 49.422 20.2195 55.4008C24.1916 60.7153 24.8537 74.6343 32.7979 74.6343C41.0732 74.6343 45.7073 53.3763 45.7073 44.0759C45.7073 34.7755 38.7561 24.1465 26.8397 24.1465Z" stroke="black" stroke-width="6.58537" stroke-linecap="square" stroke-linejoin="bevel"/>
<path d="M20.4635 42.8049C22.8882 42.8049 24.8537 40.8393 24.8537 38.4147C24.8537 35.99 22.8882 34.0244 20.4635 34.0244C18.0388 34.0244 16.0732 35.99 16.0732 38.4147C16.0732 40.8393 18.0388 42.8049 20.4635 42.8049Z" stroke="black" stroke-width="6.58537" stroke-linecap="square" stroke-linejoin="bevel"/>
<path d="M77.072 73.08C74.5547 73.08 72.4213 72.7813 70.672 72.184C68.9653 71.5867 67.5147 70.8613 66.32 70.008C65.1253 69.1547 64.0587 68.344 63.12 67.576L68.368 61.432C69.3493 62.328 70.48 63.1813 71.76 63.992C73.0827 64.8453 74.8107 65.272 76.944 65.272C78.352 65.272 79.6533 65.016 80.848 64.504C82.0853 64.0347 83.0667 63.3307 83.792 62.392C84.56 61.4533 84.944 60.28 84.944 58.872V52.728L85.264 54.328C84.5813 55.7787 83.344 57.0587 81.552 58.168C79.76 59.2347 77.4133 59.768 74.512 59.768C71.9947 59.768 69.648 59.128 67.472 57.848C65.3387 56.5253 63.632 54.7547 62.352 52.536C61.072 50.2747 60.432 47.7147 60.432 44.856C60.432 41.912 61.1147 39.3093 62.48 37.048C63.8453 34.744 65.616 32.9307 67.792 31.608C69.968 30.2853 72.272 29.624 74.704 29.624C77.136 29.624 79.2267 29.9867 80.976 30.712C82.768 31.3947 84.112 32.248 85.008 33.272L84.688 34.104L85.648 31.032H93.904V59C93.904 61.7307 93.136 64.1413 91.6 66.232C90.064 68.3653 88.016 70.0293 85.456 71.224C82.9387 72.4613 80.144 73.08 77.072 73.08ZM69.456 44.6C69.456 46.0933 69.7973 47.4373 70.48 48.632C71.1627 49.8267 72.08 50.7653 73.232 51.448C74.4267 52.1307 75.7493 52.472 77.2 52.472C78.4373 52.472 79.5253 52.3227 80.464 52.024C81.4453 51.6827 82.2987 51.2133 83.024 50.616C83.792 49.976 84.432 49.1867 84.944 48.248V41.4C84.56 40.4613 83.984 39.672 83.216 39.032C82.448 38.3493 81.552 37.8373 80.528 37.496C79.5467 37.112 78.4373 36.92 77.2 36.92C75.7493 36.92 74.4267 37.2613 73.232 37.944C72.08 38.584 71.1627 39.48 70.48 40.632C69.7973 41.784 69.456 43.1067 69.456 44.6ZM116.868 59.768C113.455 59.768 110.553 59.128 108.164 57.848C105.817 56.568 104.025 54.7973 102.788 52.536C101.551 50.2747 100.932 47.672 100.932 44.728C100.932 41.912 101.657 39.3733 103.108 37.112C104.559 34.8507 106.5 33.0587 108.932 31.736C111.364 30.3707 114.073 29.688 117.06 29.688C121.071 29.688 124.356 30.8613 126.916 33.208C129.519 35.512 131.204 38.8613 131.972 43.256L110.212 50.168L108.228 45.304L123.972 39.992L122.116 40.824C121.775 39.7147 121.156 38.7547 120.26 37.944C119.407 37.0907 118.105 36.664 116.356 36.664C115.033 36.664 113.86 36.984 112.836 37.624C111.855 38.2213 111.087 39.096 110.532 40.248C110.02 41.3573 109.764 42.68 109.764 44.216C109.764 45.9653 110.084 47.4373 110.724 48.632C111.364 49.784 112.239 50.6587 113.348 51.256C114.457 51.8533 115.695 52.152 117.06 52.152C118.041 52.152 118.98 51.9813 119.876 51.64C120.815 51.2987 121.732 50.8507 122.628 50.296L126.596 56.952C125.103 57.8053 123.481 58.488 121.732 59C120.025 59.512 118.404 59.768 116.868 59.768ZM136.307 44.664C136.307 41.8053 136.968 39.2453 138.291 36.984C139.656 34.7227 141.555 32.952 143.987 31.672C146.419 30.3493 149.214 29.688 152.371 29.688C155.571 29.688 158.344 30.3493 160.691 31.672C163.038 32.952 164.83 34.7227 166.067 36.984C167.347 39.2453 167.987 41.8053 167.987 44.664C167.987 47.5227 167.347 50.104 166.067 52.408C164.83 54.6693 163.038 56.4613 160.691 57.784C158.344 59.1067 155.528 59.768 152.243 59.768C149.171 59.768 146.419 59.1707 143.987 57.976C141.598 56.7813 139.72 55.0533 138.355 52.792C136.99 50.5307 136.307 47.8213 136.307 44.664ZM145.331 44.728C145.331 46.1787 145.63 47.5013 146.227 48.696C146.824 49.848 147.635 50.7653 148.659 51.448C149.683 52.1307 150.835 52.472 152.115 52.472C153.523 52.472 154.739 52.1307 155.763 51.448C156.787 50.7653 157.576 49.848 158.131 48.696C158.686 47.5013 158.963 46.1787 158.963 44.728C158.963 43.2347 158.686 41.912 158.131 40.76C157.576 39.608 156.787 38.6907 155.763 38.008C154.739 37.3253 153.523 36.984 152.115 36.984C150.835 36.984 149.683 37.3253 148.659 38.008C147.635 38.6907 146.824 39.608 146.227 40.76C145.63 41.912 145.331 43.2347 145.331 44.728ZM177.67 18.744H186.63V30.904H193.414V37.88H186.63V59H177.67V37.88H173.318V30.904H177.67V18.744ZM212.009 59.768C209.406 59.768 207.038 59.256 204.905 58.232C202.814 57.1653 201.15 55.544 199.913 53.368C198.676 51.192 198.057 48.4187 198.057 45.048C198.057 41.8907 198.697 39.16 199.977 36.856C201.257 34.552 202.942 32.7813 205.033 31.544C207.124 30.264 209.342 29.624 211.689 29.624C214.462 29.624 216.553 30.0933 217.961 31.032C219.412 31.928 220.606 32.9307 221.545 34.04L221.161 35.128L221.993 31.032H230.313V59H221.353V52.92L222.057 54.84C221.972 54.84 221.716 55.096 221.289 55.608C220.862 56.0773 220.222 56.6533 219.369 57.336C218.558 57.976 217.534 58.5307 216.297 59C215.102 59.512 213.673 59.768 212.009 59.768ZM214.569 52.472C215.636 52.472 216.596 52.3227 217.449 52.024C218.302 51.6827 219.049 51.2133 219.689 50.616C220.329 49.976 220.884 49.1867 221.353 48.248V41.4C221.012 40.4613 220.5 39.672 219.817 39.032C219.134 38.3493 218.324 37.8373 217.385 37.496C216.446 37.112 215.401 36.92 214.249 36.92C212.969 36.92 211.774 37.2613 210.665 37.944C209.598 38.584 208.745 39.48 208.105 40.632C207.465 41.784 207.145 43.1067 207.145 44.6C207.145 46.0933 207.486 47.4373 208.169 48.632C208.852 49.8267 209.748 50.7653 210.857 51.448C212.009 52.1307 213.246 52.472 214.569 52.472ZM248.634 59.576C246.33 59.576 244.175 59.1707 242.17 58.36C240.207 57.5493 238.543 56.4187 237.178 54.968L240.89 50.04C242.255 51.2773 243.514 52.1733 244.666 52.728C245.86 53.24 246.927 53.496 247.866 53.496C248.591 53.496 249.231 53.432 249.786 53.304C250.383 53.1333 250.852 52.8987 251.194 52.6C251.535 52.2587 251.706 51.832 251.706 51.32C251.706 50.5947 251.407 50.0187 250.81 49.592C250.255 49.1653 249.53 48.824 248.634 48.568C247.738 48.2693 246.778 47.9707 245.754 47.672C243.194 46.8613 241.338 45.688 240.186 44.152C239.076 42.5733 238.522 40.8667 238.522 39.032C238.522 37.624 238.884 36.216 239.61 34.808C240.378 33.3573 241.572 32.1627 243.194 31.224C244.858 30.2427 246.991 29.752 249.594 29.752C251.94 29.752 253.924 29.9867 255.546 30.456C257.167 30.9253 258.703 31.6933 260.154 32.76L256.762 38.008C255.951 37.368 255.034 36.8347 254.01 36.408C253.028 35.9387 252.111 35.6827 251.258 35.64C250.49 35.5973 249.828 35.6827 249.274 35.896C248.762 36.1093 248.356 36.3867 248.058 36.728C247.759 37.0693 247.61 37.432 247.61 37.816C247.567 38.6267 247.866 39.2667 248.506 39.736C249.188 40.2053 250.042 40.568 251.066 40.824C252.09 41.08 253.092 41.3787 254.074 41.72C255.439 42.1467 256.612 42.7227 257.594 43.448C258.575 44.1733 259.322 45.048 259.834 46.072C260.388 47.0533 260.666 48.248 260.666 49.656C260.666 51.3627 260.218 52.984 259.322 54.52C258.468 56.0133 257.146 57.2293 255.354 58.168C253.604 59.1067 251.364 59.576 248.634 59.576Z" fill="black"/>
</svg>
